<?xml version="1.0" encoding="iso-8859-1"?>
<!-- Generator: Adobe Illustrator 19.0.0, SVG Export Plug-In . SVG Version: 6.00 Build 0)  -->
<svg version="1.1" id="Capa_1" xmlns="http://www.w3.org/2000/svg" xmlns:xlink="http://www.w3.org/1999/xlink" x="0px" y="0px"
	 viewBox="0 0 312.999 312.999" style="enable-background:new 0 0 312.999 312.999;" xml:space="preserve">
	 	<style>
			path { fill: #aaaaaa } 
		</style>
		<path d="M305.6,178.053c-3.2-0.8-6.4,0-9.2,2c-10.4,8.8-22.4,16-35.6,20.8c-12.4,4.8-26,7.2-40.4,7.2c-32.4,0-62-13.2-83.2-34.4
			c-21.2-21.2-34.4-50.8-34.4-83.2c0-13.6,2.4-26.8,6.4-38.8c4.4-12.8,10.8-24.4,19.2-34.4c3.6-4.4,2.8-10.8-1.6-14.4
			c-2.8-2-6-2.8-9.2-2c-34,9.2-63.6,29.6-84.8,56.8c-20.4,26.8-32.8,60-32.8,96.4c0,43.6,17.6,83.2,46.4,112s68.4,46.4,112,46.4
			c36.8,0,70.8-12.8,98-34c27.6-21.6,47.6-52.4,56-87.6C314.4,184.853,311.2,179.253,305.6,178.053z M244.4,261.653
			c-23.2,18.4-52.8,29.6-85.2,29.6c-38,0-72.4-15.6-97.2-40.4c-24.8-24.8-40.4-59.2-40.4-97.2c0-31.6,10.4-60.4,28.4-83.6
			c12.4-16,28-29.2,46-38.4c-2,4.4-4,8.8-5.6,13.6c-5.2,14.4-7.6,29.6-7.6,45.6c0,38,15.6,72.8,40.4,97.6s59.6,40.4,97.6,40.4
			c16.8,0,32.8-2.8,47.6-8.4c5.2-2,10.4-4,15.2-6.4C274,232.453,260.8,248.853,244.4,261.653z"/>
</svg>