<svg xmlns="http://www.w3.org/2000/svg" viewBox="0 0 480 480" width="480" height="480">
	<style>
		.shp0 { fill: #222222 } 
	</style>
	<path id="Layer" fill-rule="evenodd" class="shp0" d="M335 240.5C334.94 292.67 292.67 334.94 240.5 335C188.31 335 146 292.69 146 240.5C146 188.31 188.31 146 240.5 146C292.69 146 335 188.31 335 240.5ZM323.19 240.5C323.14 194.85 286.15 157.86 240.5 157.81C194.83 157.81 157.81 194.83 157.81 240.5C157.81 286.17 194.83 323.19 240.5 323.19C286.17 323.19 323.19 286.17 323.19 240.5Z" />
	<path id="Layer" class="shp0" d="M138.17 126.86L81.6 70.3C81.45 70.13 81.29 69.98 81.13 69.83C77.88 66.84 72.82 67.05 69.83 70.3C66.83 73.55 67.05 78.61 70.3 81.6L126.86 138.18C128.36 139.68 130.4 140.52 132.52 140.52C134.63 140.52 136.67 139.68 138.17 138.18C141.29 135.05 141.29 129.99 138.17 126.86Z" />
	<path id="Layer" class="shp0" d="M138.18 342.02C135.11 338.84 130.04 338.75 126.86 341.82L70.3 398.39C68.8 399.89 67.95 401.93 67.95 404.05C67.95 408.46 71.53 412.05 75.95 412.05C78.07 412.04 80.1 411.2 81.6 409.7L138.18 353.14C141.17 350.04 141.17 345.12 138.18 342.02Z" />
	<path id="Layer" class="shp0" d="M409.7 398.4L353.14 341.82C350.04 338.83 345.12 338.83 342.02 341.82C338.84 344.89 338.75 349.96 341.82 353.14L398.39 409.7C399.89 411.2 401.93 412.05 404.05 412.05L404.05 412.06C406.17 412.06 408.2 411.21 409.7 409.71C412.83 406.59 412.83 401.52 409.7 398.4Z" />
	<path id="Layer copy" class="shp0" d="M468.74 232.44L388.74 232.03C384.43 232.08 380.93 235.54 380.84 239.85C380.74 244.27 384.24 247.93 388.66 248.03L468.65 248.43C470.77 248.44 472.81 247.61 474.32 246.12L474.33 246.12C475.83 244.63 476.69 242.6 476.7 240.48C476.72 236.06 473.16 232.46 468.74 232.44Z" />
	<path id="Layer copy 2" class="shp0" d="M89.74 232.44L9.74 232.03C5.43 232.08 1.93 235.54 1.84 239.85C1.74 244.27 5.24 247.93 9.66 248.03L89.65 248.43C91.77 248.44 93.81 247.61 95.32 246.12L95.33 246.12C96.83 244.63 97.69 242.6 97.7 240.48C97.72 236.06 94.16 232.46 89.74 232.44Z" />
	<path id="Layer copy 3" class="shp0" d="M248.56 91.2L248.96 11.2C248.91 6.89 245.45 3.39 241.14 3.3C236.73 3.2 233.07 6.7 232.97 11.12L232.57 91.12C232.55 93.24 233.39 95.28 234.88 96.78L234.87 96.79C236.37 98.3 238.39 99.15 240.52 99.16C244.93 99.18 248.53 95.62 248.56 91.2Z" />
	<path id="Layer copy 4" class="shp0" d="M247.56 470.2L247.96 390.2C247.91 385.89 244.45 382.39 240.14 382.3C235.73 382.2 232.07 385.7 231.97 390.12L231.57 470.12C231.55 472.24 232.39 474.28 233.88 475.78L233.87 475.79C235.37 477.3 237.39 478.15 239.52 478.16C243.93 478.18 247.53 474.62 247.56 470.2Z" />
	<path id="Layer" class="shp0" d="M409.7 69.83C406.45 66.84 401.39 67.05 398.4 70.3L341.82 126.86C340.32 128.36 339.48 130.4 339.48 132.52C339.48 136.94 343.06 140.52 347.48 140.52C349.6 140.52 351.64 139.67 353.14 138.17L409.7 81.6C409.87 81.45 410.02 81.29 410.17 81.13C413.17 77.88 412.95 72.82 409.7 69.83Z" />
</svg>